PathFileType	4	(X/Y/Z)	C:/Users/beibeiliu/ov580/test_trc/User2\sequence.29_training_dense_left.trc
DataRate	CameraRate	NumFrames	NumMarkers	Units	OrigDataRate	OrigDataStartFrame	OrigNumFrames
120	120	21	19	mm	120	92	365
Frame#	Time	ThumbCMC			ThumbMCP			ThumbIP			ThumbTip			IndexMCP			IndexPIP			IndexTip			MiddleMCP			MiddlePIP			MiddleTip			RingMCP			RingPIP			RingTip			PinkyMCP			PinkyPIP			PinkyTip			BackHand1			BackHand2			BackHand3	
		X0	Y0	Z0	X1	Y1	Z1	X2	Y2	Z2	X3	Y3	Z3	X4	Y4	Z4	X5	Y5	Z5	X6	Y6	Z6	X7	Y7	Z7	X8	Y8	Z8	X9	Y9	Z9	X10	Y10	Z10	X11	Y11	Z11	X12	Y12	Z12	X13	Y13	Z13	X14	Y14	Z14	X15	Y15	Z15	X16	Y16	Z16	X17	Y17	Z17	X18	Y18	Z18	
91	0.758333	-238.209	-40.754	99.8512	-251.447	-29.3169	76.2234	-263.785	-17.6136	47.1369	-268.413	-6.60219	27.4322	-196.11	-57.8781	27.1553	-189.294	-59.3531	1.39311	-182.133	-53.1816	-27.5308	-168.453	-64.7944	35.2324	-149.285	-62.791	-0.429124	-131.148	-44.6599	-23.6286	-142.58	-60.1809	45.2854	-125.305	-54.5103	24.5771	-112.147	-34.2408	1.2864	-128.145	-43.3903	73.5909	-105.783	-31.2327	53.4583	-92.2116	-12.6256	35.5365	-168.307	-64.7208	95.2931	-178.458	-72.6557	123.069	-204.792	-65.8675	93.6822	
92	0.766667	-237.058	-43.0744	102.027	-248.184	-31.4716	79.5333	-261.986	-20.5969	45.9644	-265.81	-8.49498	26.4956	-194.109	-58.7082	31.9106	-189.649	-62.2545	0.445849	-181.55	-56.6528	-24.3791	-163.379	-67.7417	35.8489	-147.382	-65.6385	3.62062	-132.468	-50.1165	-26.1304	-140.549	-61.1717	48.6033	-123.848	-55.8917	23.1495	-113.894	-40.7885	0.0197139	-124.448	-45.8345	73.1979	-106.199	-34.4184	53.501	-92.575	-16.444	33.5942	-164.416	-66.388	97.8827	-180.261	-74.6206	127.224	-202.257	-68.652	99.281	
93	0.775	-235.15	-42.192	101.021	-248.65	-30.7392	74.6164	-261.181	-18.9958	49.0761	-272.53	-8.04717	28.2774	-198.381	-59.0558	31.3345	-192.934	-62.1579	0.986953	-184.962	-55.9363	-29.8934	-165.327	-67.3237	29.6645	-150.404	-66.3688	1.9973	-131.589	-51.3486	-24.9743	-139.252	-59.6701	44.9994	-125.721	-55.1648	23.2012	-114.586	-38.408	-5.00344	-127.154	-44.2755	68.2139	-107.091	-32.6897	49.0231	-92.9831	-14.261	30.8523	-167.849	-66.2009	93.5441	-179.841	-71.7082	122.595	-203.787	-69.2089	95.7603	
94	0.783333	-232.524	-38.9044	100.299	-250.597	-26.1475	74.6827	-263.364	-15.7217	43.5026	-269.671	-4.82718	26.4311	-198.594	-55.6586	25.7716	-190.188	-58.5199	-1.08832	-184.697	-51.4534	-28.7437	-166.8	-64.015	27.9183	-150.947	-62.2754	-2.50026	-130.123	-46.8342	-27.9611	-141.387	-55.9254	44.0201	-127.668	-51.509	20.7391	-110.752	-33.3501	-5.26253	-126.787	-39.993	66.7888	-105.046	-28.9644	53.3559	-91.2392	-11.5526	31.42	-168.688	-60.2277	93.0901	-178.014	-70.1936	121.734	-201.721	-64.8576	94.4304	
95	0.791667	-233.976	-36.5017	98.7448	-250.215	-23.3951	76.2202	-260.26	-13.7413	43.71	-272.93	-1.16562	26.6602	-198.314	-54.2384	24.1876	-190.666	-55.2624	-4.43886	-181.925	-45.2233	-33.3298	-164.241	-61.8209	29.1184	-152.005	-59.8173	0.737886	-130.745	-41.1817	-26.135	-140.78	-53.6052	44.0084	-126.823	-48.0981	22.333	-113.916	-28.6699	-1.06444	-126.409	-38.9809	71.1565	-104.132	-23.5777	48.1911	-96.4094	-6.12604	30.2843	-166.159	-61.6587	90.3632	-180.748	-67.146	121.124	-208.093	-63.9456	90.647	
96	0.8	-234.897	-34.3652	97.4154	-246.948	-22.4231	73.1395	-263.879	-11.1256	41.6032	-269.346	0.030616	23.1867	-199.01	-51.7252	27.3694	-195.433	-53.3346	-4.74133	-182.766	-42.1766	-32.9558	-165.345	-58.3305	32.8208	-146.975	-55.5388	0.324678	-131.581	-36.193	-22.6482	-144.243	-52.6618	42.8983	-126.696	-43.9483	19.0563	-115.151	-19.7914	1.28283	-125.984	-37.9686	66.7081	-107.62	-21.0021	48.3704	-98.0916	0.719762	35.7862	-166.581	-60.332	92.4148	-178.324	-69.4722	120.816	-209.614	-60.5586	94.0716	
97	0.808333	-235.177	-38.883	101.555	-250.24	-26.8103	77.3066	-259.558	-14.9227	48.2824	-268.839	-3.36951	23.2721	-201.15	-56.1745	32.79	-195.003	-56.5774	-3.42818	-184.589	-41.9977	-30.1143	-163.571	-62.0985	35.5128	-147.435	-54.9798	1.01346	-134.04	-29.8012	-19.1454	-143.925	-55.0452	45.9066	-124.943	-43.2793	24.1339	-117.548	-14.227	7.94764	-127.078	-41.273	69.9594	-110.557	-21.8597	49.2754	-104.57	4.0822	37.8684	-170.468	-65.6701	94.4271	-180.583	-71.4068	128.452	-205.996	-65.4014	94.9403	
98	0.816667	-238.281	-42.0782	102.702	-253.442	-28.8574	79.1547	-260.397	-17.2855	45.2065	-263.599	-5.59661	26.2202	-196.792	-58.244	34.4353	-191.964	-57.5348	-0.770803	-182.298	-42.4228	-25.0504	-162.976	-64.0569	36.5384	-147.657	-56.2788	6.37222	-133.042	-20.8751	-10.7828	-141.366	-56.3971	48.872	-124.427	-43.4253	28.0173	-122.302	-11.4796	15.5018	-127.185	-42.1359	72.2798	-112.11	-21.3328	52.0395	-109.921	8.42446	42.72	-167.85	-66.4679	97.0858	-179.559	-73.2864	130.638	-209.201	-66.6421	100.157	
99	0.825	-232.755	-34.8737	97.5268	-247.536	-22.1185	73.8613	-261.009	-10.714	46.8486	-265.495	1.68406	25.8497	-194.884	-54.0048	30.4923	-190.498	-54.6601	1.04776	-179.564	-34.6332	-25.4898	-161.656	-58.9307	36.7119	-143.887	-46.7249	3.83791	-135.636	-8.70578	-5.08764	-139.621	-52.1079	46.8296	-127.232	-37.4166	23.7554	-128.855	-2.62562	18.0731	-129.545	-37.992	71.7048	-111.394	-17.822	51.6766	-116.025	11.4485	45.2728	-166.059	-61.7051	97.6198	-179.531	-67.2604	125.225	-205.747	-63.7463	98.8536	
100	0.833333	-233.692	-33.5939	100.819	-249.176	-20.4917	72.7904	-260.563	-8.5787	46.5952	-267.972	3.69685	25.0819	-196.252	-51.4282	30.329	-189.801	-52.1197	-0.115736	-177.544	-30.2987	-27.0375	-158.443	-57.8709	30.9679	-141.763	-44.5696	3.87707	-137.97	-4.4548	-3.40476	-142.721	-50.9211	47.023	-128.059	-36.3788	22.3285	-129.094	1.89007	19.5513	-124.291	-35.8876	71.2671	-111.197	-15.7994	49.3955	-116.268	14.7267	44.4108	-165.249	-59.443	94.2782	-181.602	-66.0259	125.54	-206.692	-59.9612	94.2643	
101	0.841667	-232.478	-30.4804	93.3071	-242.252	-15.7567	73.4531	-255.757	-4.25064	45.1981	-264.829	7.52292	23.8064	-195.252	-48.7628	28.6121	-190.369	-49.4088	-1.20202	-175.62	-28.9857	-29.5085	-159.92	-53.856	33.6744	-137.801	-40.4115	2.70611	-131.066	-5.34723	-2.88371	-141.065	-49.0577	45.2813	-122.207	-32.4208	21.1324	-124.386	1.03624	16.4326	-123.353	-33.8185	70.8628	-108.928	-15.7142	49.632	-110.827	17.4511	43.518	-165.023	-56.7688	93.1465	-175.882	-62.2049	120.774	-204.357	-58.8788	89.0511	
102	0.85	-234.536	-38.4602	95.1188	-247.947	-24.8813	71.4485	-257.702	-10.9904	45.6653	-265.368	1.91584	24.3064	-196.347	-55.5276	26.5474	-190.492	-54.5928	-2.36735	-177.581	-40.2592	-26.7528	-156.834	-60.6342	33.5183	-141.666	-50.1259	1.99254	-127.46	-16.8483	-9.95925	-137.509	-53.058	49.3773	-121.857	-39.6864	22.6311	-115.346	-7.82378	12.5496	-125.538	-38.003	72.8461	-106.76	-19.0546	51.5408	-100.968	9.68594	43.7242	-163.677	-62.45	94.5186	-179.719	-69.0733	120.883	-201.891	-65.4426	92.0202	
103	0.858333	-230.878	-35.888	97.7838	-245.223	-23.7041	75.1184	-260.165	-10.5345	46.8683	-267.244	1.20728	24.9271	-193.626	-53.2942	28.6571	-188.47	-52.9192	-1.91038	-179.372	-41.1338	-29.8959	-159.267	-58.7943	33.3731	-140.177	-51.1064	2.04207	-126.773	-28.6177	-16.4525	-139.246	-50.8261	47.1599	-121.74	-40.3969	24.1049	-109.018	-12.6348	6.3735	-122.93	-36.7082	72.1216	-105.472	-18.8733	53.2702	-92.6371	3.93241	40.2473	-164.377	-60.8699	94.7347	-179.168	-68.5021	121.982	-202.022	-63.3488	93.7318	
104	0.866667	-230.377	-35.1689	101.589	-241.805	-22.2264	74.6734	-257.33	-9.30863	46.9464	-265.603	1.40047	23.8864	-193.489	-50.956	29.073	-186.137	-50.2991	-1.53401	-176.109	-42.6731	-29.9327	-157.22	-56.7359	34.6018	-141.931	-52.2007	3.88201	-124.309	-32.226	-22.3827	-134.052	-48.4869	46.3074	-120.913	-40.2185	26.8168	-105.925	-18.9379	3.9364	-124.086	-35.3913	75.091	-105.388	-19.936	56.2165	-87.4011	-4.71444	43.9425	-161.971	-63.0217	96.2848	-176.759	-71.0628	128.712	-204.787	-61.2037	96.5307	
105	0.875	-230.106	-38.0602	99.3922	-245.358	-24.2979	77.4694	-254.551	-11.8883	47.1447	-264.698	-0.197162	31.0692	-197.079	-51.1216	29.4804	-188.638	-51.7731	2.7979	-181.89	-44.4657	-30.0593	-163.632	-57.2711	32.4345	-146.396	-53.7521	4.76108	-129.234	-39.8023	-23.3447	-139.548	-49.4281	50.3788	-121.931	-40.4455	23.6001	-105.007	-23.5446	1.33769	-121.825	-35.7589	74.9671	-105.552	-23.2507	57.8328	-92.6154	-10.6101	40.8598	-167.616	-63.1539	95.896	-180.372	-71.5606	127.034	-200.617	-62.8766	94.8183	
106	0.883333	-235.168	-40.2175	100.212	-249.891	-26.7753	79.229	-257.366	-14.0644	47.074	-264.721	-1.98321	24.6997	-195.751	-54.9761	27.5229	-190.88	-55.0603	0.192014	-181.99	-46.0297	-27.4902	-159.389	-60.3836	31.3783	-144.827	-55.3919	5.07283	-124.681	-42.6151	-22.1868	-139.432	-51.8637	50.207	-120.345	-43.754	28.3947	-105.465	-27.995	6.21288	-121.963	-37.6355	70.8273	-102.553	-25.215	58.9629	-86.1075	-9.66376	40.5067	-163.244	-63.3486	96.4128	-178.882	-71.8154	128.974	-205.345	-65.0511	96.7546	
107	0.891667	-232.577	-38.1184	102.219	-245.952	-25.3974	74.3338	-255.826	-12.7053	48.752	-265.337	-1.30935	26.3525	-197.568	-53.9425	31.3952	-190.482	-54.29	1.47368	-180.084	-44.0338	-26.4823	-158.785	-59.6476	32.3563	-143.492	-54.4318	3.19302	-125.961	-41.3255	-18.3307	-137.335	-52.4222	50.1814	-118.973	-45.9273	29.686	-108.68	-26.1071	4.36274	-122.335	-40.1568	73.495	-105.019	-26.2245	57.5638	-91.6889	-7.64964	40.2042	-162.751	-63.7046	98.2124	-179.025	-70.5268	129.148	-204.27	-66.4552	95.9715	
108	0.9	-233.282	-38.6164	100.852	-243.399	-25.1831	75.1198	-257.244	-12.9201	47.0603	-264.71	-0.61055	28.6368	-197.267	-54.6758	30.1666	-190.702	-54.5779	0.133123	-183.224	-40.7505	-29.6112	-161.128	-61.5839	31.1044	-141.831	-53.7258	1.77409	-126.663	-33.4071	-20.3046	-136.153	-54.4165	47.5224	-119.849	-46.0437	27.7779	-110.977	-19.0157	6.96947	-122.061	-40.9614	73.9833	-101.531	-24.3409	55.8129	-96.7647	-4.36466	40.4654	-166.035	-64.3877	96.5033	-179.732	-72.1282	125.515	-202.692	-64.1162	94.8278	
109	0.908333	-231.619	-37.7014	98.2423	-248.101	-24.8398	75.3242	-255.658	-11.3183	47.5729	-263.374	-0.164862	24.3972	-193.33	-53.6052	28.8821	-189.772	-52.8671	2.51031	-181.415	-40.1507	-24.506	-161.443	-59.3272	36.5174	-141.163	-51.6858	3.73005	-124.742	-26.0635	-11.5398	-138.656	-54.3842	49.4297	-120.862	-40.2527	25.6096	-114.291	-12.5254	14.7454	-120.702	-40.8421	74.8977	-106.262	-21.2365	54.0411	-102.634	6.62601	45.8226	-166.121	-63.2701	100.661	-181.571	-72.6371	127.945	-205.597	-65.2724	97.2498	
110	0.916667	-235.44	-37.6046	102.27	-248.163	-24.1009	73.5236	-254.738	-11.091	46.0555	-258.242	0.0410486	24.9787	-194.091	-53.1587	30.9079	-185.201	-51.3084	0.407161	-178.338	-38.9289	-23.393	-160.101	-59.0919	34.0481	-138.349	-47.4699	6.41373	-126.735	-12.2109	-7.64951	-140.635	-53.6614	49.53	-122.783	-38.5437	27.8414	-118.892	-3.9924	21.9165	-124.239	-39.7378	74.2095	-108.954	-18.0096	56.7607	-113.517	10.0608	51.1784	-165.681	-63.7302	101.397	-180.675	-72.3041	129.592	-206.963	-65.3692	97.0789	
111	0.925	-234.07	-37.8875	101.506	-246.176	-23.8342	80.137	-255.39	-11.3553	49.7591	-262.507	1.02618	28.885	-195.015	-52.8825	31.0633	-186.707	-52.341	2.41402	-175.297	-34.8051	-24.2238	-161.07	-59.4107	33.4292	-138.672	-45.7224	9.40983	-127.738	-7.68815	0.440374	-138.695	-52.6666	50.5805	-121.766	-36.4468	29.2146	-122.895	-1.36059	26.8276	-124.227	-40.3116	78.3381	-107.939	-17.6156	59.0459	-115.287	17.0501	54.1773	-166.426	-63.5678	95.7467	-182.781	-72.2363	127.651	-204.414	-65.0023	99.5065	
